# xmcd CD database file
#
# Track frame offsets:
#	150
#	13880
#	25134
#	42905
#	54155
#	77870
#	91125
#	111396
#	127520
#	143795
#	155475
#	196510
#	208135
#	222464
#
# Disc length: 3122 seconds
#
# Revision: 0
# Processed by: cddbd v1.5.2PL0 Copyright (c) Steve Scherf et al.
# Submitted via: CDex 1.70beta2
#
DISCID=b70c300e
DTITLE=Blues Delivery - Act Right
DYEAR=2003
DGENRE=Blues
TTITLE0=Act Right (Wynona Carr)
TTITLE1=Mr. Rythm Man (Hudson Whittaker)
TTITLE2=Black Rat Swing (Lizzie Duglas)
TTITLE3=Bye-Bye Bird (Rice Miller)
TTITLE4=Fine And Mellow (Billie Holiday)
TTITLE5=Mingelewood Blues (Noah Lewis)
TTITLE6=Love Me Like A Man (Chris Smither)
TTITLE7=Easy Rider (Gertrude Rainey)
TTITLE8=Early In The Morning (Leo Hickman, Lois Jordan)
TTITLE9=I'll Try To Forget (Merline Johnson)
TTITLE10=Room To Move (John Mayall)
TTITLE11=He's Got Me Goin' (Henry Gray)
TTITLE12=Pile Drivin Blues (Joe McCoy)
TTITLE13=The Way To Get Lowdown (Hudson Whittaker)
EXTD=YEAR: 2003
EXTT0=
EXTT1=
EXTT2=
EXTT3=
EXTT4=
EXTT5=
EXTT6=
EXTT7=
EXTT8=
EXTT9=
EXTT10=
EXTT11=
EXTT12=
EXTT13=
PLAYORDER=
